<svg width="380" height="150" viewBox="0 0 380 150" fill="none" xmlns="http://www.w3.org/2000/svg" shape-rendering="crispEdges">
  <defs>
    <pattern id="matrix" width="12" height="12" patternUnits="userSpaceOnUse">
      <text x="1" y="6" fill="#27FF39" fill-opacity="0.13" font-family="monospace" font-size="5">1</text>
      <text x="7" y="11" fill="#0BAF25" fill-opacity="0.12" font-family="monospace" font-size="5">0</text>
    </pattern>
  </defs>
  <rect width="380" height="150" rx="5" fill="#010402"/>
  <rect x="1" y="1" width="378" height="148" rx="4" stroke="#24F53B"/>
  <rect width="380" height="150" rx="5" fill="url(#matrix)"/>
  <rect x="1" y="1" width="378" height="25" fill="#031208"/>
  <path d="M1 26H379" stroke="#24F53B"/>
  <rect x="13" y="10" width="6" height="6" fill="#24F53B"/>
  <text x="27" y="17" fill="#7BFF78" font-family="SFMono-Regular, Menlo, Consolas, monospace" font-size="11" font-weight="700">CI://QUALITY_SIGNAL</text>
  <g fill="#24F53B"><rect x="342" y="10" width="5" height="5"/><rect x="353" y="10" width="5" height="5"/><rect x="364" y="10" width="5" height="5"/></g>
  <text x="20" y="82" fill="#61FF61" font-family="SFMono-Regular, Menlo, Consolas, monospace" font-size="50" font-weight="900">123</text>
  <text x="22" y="104" fill="#8CFF83" font-family="SFMono-Regular, Menlo, Consolas, monospace" font-size="11" font-weight="700">AUTOMATED TESTS</text>
  <text x="22" y="126" fill="#1DDC35" font-family="SFMono-Regular, Menlo, Consolas, monospace" font-size="9">$ npm run validate</text>
  <g transform="translate(220 43)">
    <g fill="#0A4D18"><rect x="0" y="54" width="13" height="28"/><rect x="22" y="43" width="13" height="39"/><rect x="44" y="32" width="13" height="50"/><rect x="66" y="20" width="13" height="62"/><rect x="88" y="8" width="13" height="74"/></g>
    <g fill="#28FF40"><rect x="2" y="56" width="9" height="24"/><rect x="24" y="45" width="9" height="35"/><rect x="46" y="34" width="9" height="46"/><rect x="68" y="22" width="9" height="58"/><rect x="90" y="10" width="9" height="70"/></g>
    <text x="0" y="99" fill="#7BFF78" font-family="SFMono-Regular, Menlo, Consolas, monospace" font-size="9">PASSING [100%]</text>
  </g>
</svg>
