<svg width="380" height="150" viewBox="0 0 380 150" fill="none" xmlns="http://www.w3.org/2000/svg">
  <defs>
    <pattern id="dots" width="14" height="14" patternUnits="userSpaceOnUse"><rect x="2" y="2" width="2" height="2" fill="#8ECDF4" fill-opacity="0.17"/></pattern>
  </defs>
  <rect width="380" height="150" rx="8" fill="#0A2345"/>
  <rect x="1" y="1" width="378" height="148" rx="7" stroke="#8ECDF4" stroke-opacity="0.72"/>
  <rect width="380" height="150" rx="8" fill="url(#dots)"/>
  <text x="22" y="31" fill="#F2B29B" font-family="SFMono-Regular, Menlo, Consolas, monospace" font-size="12" font-weight="700" letter-spacing="0">PROJECT STACK</text>
  <text x="22" y="72" fill="#FFF7F2" font-family="SFMono-Regular, Menlo, Consolas, monospace" font-size="28" font-weight="800" letter-spacing="0">REACT 19</text>
  <text x="22" y="103" fill="#FFD2C3" font-family="SFMono-Regular, Menlo, Consolas, monospace" font-size="18" font-weight="700" letter-spacing="0">TANSTACK ROUTER</text>
  <text x="22" y="128" fill="#8ECDF4" font-family="SFMono-Regular, Menlo, Consolas, monospace" font-size="11" letter-spacing="0">TYPESCRIPT / VITE</text>
  <g transform="translate(260 37)">
    <g fill="#F2B29B"><rect x="34" y="0" width="12" height="12"/><rect x="17" y="17" width="12" height="12"/><rect x="51" y="17" width="12" height="12"/><rect x="0" y="34" width="12" height="12"/><rect x="68" y="34" width="12" height="12"/><rect x="17" y="51" width="12" height="12"/><rect x="51" y="51" width="12" height="12"/><rect x="34" y="68" width="12" height="12"/></g>
    <rect x="34" y="34" width="12" height="12" fill="#8ECDF4"/>
  </g>
</svg>
