<svg width="380" height="150" viewBox="0 0 380 150" fill="none" xmlns="http://www.w3.org/2000/svg" shape-rendering="crispEdges">
  <defs>
    <pattern id="matrix" width="12" height="12" patternUnits="userSpaceOnUse">
      <text x="1" y="6" fill="#27FF39" fill-opacity="0.13" font-family="monospace" font-size="5">1</text>
      <text x="7" y="11" fill="#0BAF25" fill-opacity="0.1" font-family="monospace" font-size="5">1</text>
    </pattern>
  </defs>
  <rect width="380" height="150" rx="5" fill="#010402"/>
  <rect x="1" y="1" width="378" height="148" rx="4" stroke="#24F53B"/>
  <rect width="380" height="150" rx="5" fill="url(#matrix)"/>
  <rect x="1" y="1" width="378" height="25" fill="#031208"/>
  <path d="M1 26H379" stroke="#24F53B"/>
  <rect x="13" y="10" width="6" height="6" fill="#24F53B"/>
  <text x="27" y="17" fill="#7BFF78" font-family="SFMono-Regular, Menlo, Consolas, monospace" font-size="11" font-weight="700">OUTPUT://DELIVERY_STATUS</text>
  <text x="20" y="66" fill="#61FF61" font-family="SFMono-Regular, Menlo, Consolas, monospace" font-size="26" font-weight="900">LOCAL READY</text>
  <text x="20" y="91" fill="#8CFF83" font-family="SFMono-Regular, Menlo, Consolas, monospace" font-size="14" font-weight="700">PROJECT + PREVIEW</text>
  <text x="20" y="116" fill="#1DDC35" font-family="SFMono-Regular, Menlo, Consolas, monospace" font-size="9">[x] BUILD  [x] PROOF  [x] OPEN</text>
  <text x="20" y="134" fill="#128B24" font-family="SFMono-Regular, Menlo, Consolas, monospace" font-size="8">AUTO_REMOTE_RUNTIME: 0</text>
  <g transform="translate(276 38)">
    <rect width="80" height="72" fill="#020A04" stroke="#24F53B"/>
    <rect x="9" y="10" width="7" height="7" fill="#24F53B"/><rect x="20" y="10" width="7" height="7" fill="#24F53B"/><rect x="31" y="10" width="7" height="7" fill="#24F53B"/>
    <path d="M11 31H61M11 42H51M11 53H66" stroke="#24F53B" stroke-width="5"/>
    <path d="M59 21H72V60H57V48H68V32H62" stroke="#7BFF78" stroke-width="3" stroke-linecap="square" stroke-linejoin="miter"/>
    <g fill="#2CFF43"><rect x="48" y="17" width="13" height="10"/><rect x="44" y="20" width="7" height="7"/><rect x="47" y="21" width="2" height="2" fill="#010402"/></g>
    <text x="4" y="88" fill="#7BFF78" font-family="SFMono-Regular, Menlo, Consolas, monospace" font-size="8">OPEN_PREVIEW()</text>
  </g>
</svg>
