<svg width="380" height="150" viewBox="0 0 380 150" fill="none" xmlns="http://www.w3.org/2000/svg" shape-rendering="crispEdges">
  <defs>
    <pattern id="matrix" width="12" height="12" patternUnits="userSpaceOnUse">
      <text x="1" y="6" fill="#27FF39" fill-opacity="0.12" font-family="monospace" font-size="5">0</text>
      <text x="7" y="11" fill="#0BAF25" fill-opacity="0.11" font-family="monospace" font-size="5">1</text>
    </pattern>
  </defs>
  <rect width="380" height="150" rx="5" fill="#010402"/>
  <rect x="1" y="1" width="378" height="148" rx="4" stroke="#24F53B"/>
  <rect width="380" height="150" rx="5" fill="url(#matrix)"/>
  <rect x="1" y="1" width="378" height="25" fill="#031208"/>
  <path d="M1 26H379" stroke="#24F53B"/>
  <rect x="13" y="10" width="6" height="6" fill="#24F53B"/>
  <text x="27" y="17" fill="#7BFF78" font-family="SFMono-Regular, Menlo, Consolas, monospace" font-size="11" font-weight="700">RUNTIME://PROJECT_STACK</text>
  <text x="20" y="67" fill="#61FF61" font-family="SFMono-Regular, Menlo, Consolas, monospace" font-size="27" font-weight="900">REACT 19</text>
  <text x="20" y="93" fill="#8CFF83" font-family="SFMono-Regular, Menlo, Consolas, monospace" font-size="16" font-weight="700">TANSTACK ROUTER</text>
  <text x="20" y="117" fill="#1DDC35" font-family="SFMono-Regular, Menlo, Consolas, monospace" font-size="10">TYPESCRIPT / VITE</text>
  <text x="20" y="134" fill="#128B24" font-family="SFMono-Regular, Menlo, Consolas, monospace" font-size="8">AGENT_TRANSFORM: ONLINE</text>
  <g transform="translate(262 41)">
    <g fill="#0B5E1C"><rect x="16" y="25" width="42" height="30"/><rect x="3" y="17" width="28" height="27"/><rect x="0" y="25" width="9" height="12"/><rect x="25" y="54" width="8" height="19"/><rect x="47" y="52" width="8" height="21"/></g>
    <g fill="#2CFF43"><rect x="6" y="20" width="20" height="20"/><rect x="1" y="27" width="8" height="8"/><rect x="18" y="25" width="7" height="7"/><rect x="20" y="27" width="3" height="3" fill="#010402"/><rect x="27" y="29" width="31" height="19"/><rect x="27" y="49" width="8" height="10"/><rect x="47" y="48" width="8" height="11"/></g>
    <path d="M57 37H73V22H88V57H69V70H85" stroke="#2CFF43" stroke-width="5" stroke-linecap="square" stroke-linejoin="miter"/>
    <rect x="31" y="35" width="6" height="5" fill="#010402"/><rect x="40" y="35" width="6" height="5" fill="#010402"/>
    <text x="4" y="91" fill="#7BFF78" font-family="SFMono-Regular, Menlo, Consolas, monospace" font-size="8">CHAMELEON.OS</text>
  </g>
</svg>
